<svg xmlns="http://www.w3.org/2000/svg" version="1.1" xmlns:xlink="http://www.w3.org/1999/xlink" xmlns:svgjs="http://svgjs.dev/svgjs" width="1500" height="674" viewBox="0 0 1500 674"><g transform="matrix(1,0,0,1,-0.9090909090909918,-0.6934634468847207)"><svg viewBox="0 0 396 178" data-background-color="#ffffff" preserveAspectRatio="xMidYMid meet" height="674" width="1500" xmlns="http://www.w3.org/2000/svg" xmlns:xlink="http://www.w3.org/1999/xlink"><g id="tight-bounds" transform="matrix(1,0,0,1,0.2400000000000091,0.18314019813870175)"><svg viewBox="0 0 395.52 177.6337196037226" height="177.6337196037226" width="395.52"><g><svg viewBox="0 0 395.52 177.6337196037226" height="177.6337196037226" width="395.52"><g><svg viewBox="0 0 395.52 177.6337196037226" height="177.6337196037226" width="395.52"><g id="textblocktransform"><svg viewBox="0 0 395.52 177.6337196037226" height="177.6337196037226" width="395.52" id="textblock"><g><svg viewBox="0 0 395.52 177.6337196037226" height="177.6337196037226" width="395.52"><g transform="matrix(1,0,0,1,0,0)"><svg width="395.52" viewBox="0.12 -36.18 82.58999999999999 36.52" height="177.6337196037226" data-palette-color="#000000"><g class="wordmark-text-0" data-fill-palette-color="primary" id="text-0"><path d="M33.23-34.96L45.29-33.89 39.58-0.05 25.71 0.24 22.73-17.29 19.75-1.03 5.88-0.54 0.12-33.89 12.23-34.96 14.67-14.7 17.94-34.96 27.47-34.96 31.27-14.45 33.23-34.96ZM56.08-5.03L56.08-5.03Q56.08-3.96 55.66-3.03 55.25-2.1 54.55-1.4 53.85-0.71 52.93-0.31 52 0.1 50.95 0.1L50.95 0.1Q49.88 0.1 48.95-0.31 48.02-0.71 47.32-1.4 46.63-2.1 46.23-3.03 45.82-3.96 45.82-5.03L45.82-5.03Q45.82-6.08 46.23-7.03 46.63-7.98 47.32-8.68 48.02-9.38 48.95-9.79 49.88-10.21 50.95-10.21L50.95-10.21Q52-10.21 52.93-9.79 53.85-9.38 54.55-8.68 55.25-7.98 55.66-7.03 56.08-6.08 56.08-5.03ZM82.71-12.99L82.71-12.99Q82.71-9.64 81.55-7.14 80.39-4.64 78.38-2.98 76.36-1.32 73.66-0.49 70.97 0.34 67.87 0.34L67.87 0.34Q66.67 0.34 65.24 0.02 63.81-0.29 62.35-0.77 60.88-1.25 59.53-1.79 58.17-2.34 57.12-2.83L57.12-2.83 58.2-12.89Q60.27-11.65 62.8-11 65.33-10.35 67.77-10.35L67.77-10.35Q68.23-10.35 68.89-10.39 69.55-10.42 70.15-10.61 70.75-10.79 71.16-11.16 71.58-11.52 71.58-12.21L71.58-12.21Q71.58-12.67 71.28-13 70.99-13.33 70.53-13.54 70.06-13.75 69.48-13.85 68.89-13.96 68.33-14.01 67.77-14.06 67.28-14.06 66.79-14.06 66.5-14.06L66.5-14.06Q64.4-14.06 62.68-14.79 60.96-15.53 59.72-16.83 58.49-18.14 57.81-19.93 57.12-21.73 57.12-23.83L57.12-23.83Q57.12-26.71 58.28-28.99 59.44-31.27 61.38-32.87 63.33-34.47 65.84-35.33 68.35-36.18 71.04-36.18L71.04-36.18Q72.24-36.18 73.51-36.1 74.78-36.01 76.03-35.79 77.29-35.57 78.49-35.23 79.68-34.89 80.76-34.38L80.76-34.38 79.83-24.46Q78.17-25.02 76.35-25.4 74.53-25.78 72.8-25.78L72.8-25.78Q72.48-25.78 71.98-25.77 71.48-25.76 70.93-25.7 70.38-25.63 69.82-25.51 69.26-25.39 68.82-25.18 68.38-24.98 68.11-24.63 67.84-24.29 67.87-23.83L67.87-23.83Q67.89-23.29 68.27-22.96 68.65-22.63 69.25-22.45 69.84-22.27 70.56-22.19 71.28-22.12 71.99-22.11 72.7-22.09 73.31-22.11 73.92-22.12 74.31-22.07L74.31-22.07Q76.26-21.95 77.83-21.24 79.39-20.53 80.48-19.36 81.56-18.19 82.14-16.56 82.71-14.94 82.71-12.99Z" fill="#000000" data-fill-palette-color="primary"></path></g></svg></g></svg></g></svg></g></svg></g></svg></g><defs></defs></svg><rect width="395.52" height="177.6337196037226" fill="none" stroke="none" visibility="hidden"></rect></g></svg></g></svg>