<svg xmlns="http://www.w3.org/2000/svg" version="1.1" xmlns:xlink="http://www.w3.org/1999/xlink" xmlns:svgjs="http://svgjs.dev/svgjs" width="1500" height="545" viewBox="0 0 1500 545"><g transform="matrix(1,0,0,1,-0.9090909090909918,-0.23294392094248906)"><svg viewBox="0 0 396 144" data-background-color="#ffffff" preserveAspectRatio="xMidYMid meet" height="545" width="1500" xmlns="http://www.w3.org/2000/svg" xmlns:xlink="http://www.w3.org/1999/xlink"><g id="tight-bounds" transform="matrix(1,0,0,1,0.2400000000000091,0.07440305427149951)"><svg viewBox="0 0 395.52 143.851193891457" height="143.851193891457" width="395.52"><g><svg viewBox="0 0 613.9887182752636 223.3085815123941" height="143.851193891457" width="395.52"><g><rect width="14.5717788243443" height="162.39155167869467" x="433.66601786477565" y="30.458514916849722" fill="#000000" opacity="1" stroke-width="0" stroke="transparent" fill-opacity="1" class="rect-qz-0" data-fill-palette-color="primary" rx="1%" id="qz-0" data-palette-color="#000000"></rect></g><g transform="matrix(1,0,0,1,0,30.862474000627557)"><svg viewBox="0 0 395.52 161.583633511139" height="161.583633511139" width="395.52"><g id="textblocktransform"><svg viewBox="0 0 395.52 161.583633511139" height="161.583633511139" width="395.52" id="textblock"><g><svg viewBox="0 0 395.52 161.583633511139" height="161.583633511139" width="395.52"><g transform="matrix(1,0,0,1,0,0)"><svg width="395.52" viewBox="0.7 -31.95 79.67 32.55" height="161.583633511139" data-palette-color="#000000"><g class="wordmark-text-0" data-fill-palette-color="primary" id="text-0"><path d="M10.65 0L0.7-31.4 5.1-31.4 13.25-3.45 12.1-3.45 20.45-28.15 23.1-28.15 31.35-3.65 30.25-3.65 39.6-31.4 43.95-31.4 32.85 0 28.75 0 21.5-21.3 22.25-21.3 14.75 0 10.65 0ZM46.2-2.33L46.2-2.33Q46.2-3.5 47.02-4.35 47.85-5.2 49.1-5.2L49.1-5.2Q50.35-5.2 51.22-4.35 52.1-3.5 52.1-2.33L52.1-2.33Q52.1-1.15 51.22-0.35 50.35 0.45 49.1 0.45L49.1 0.45Q47.85 0.45 47.02-0.36 46.2-1.18 46.2-2.33ZM68.72 0.6L68.72 0.6Q65.57 0.6 62.95-0.54 60.32-1.68 58.72-3.9 57.12-6.13 57.07-9.4L57.07-9.4 60.87-9.4Q60.87-7.2 61.95-5.79 63.02-4.38 64.8-3.69 66.57-3 68.67-3L68.67-3Q70.95-3 72.62-3.73 74.3-4.45 75.21-5.64 76.12-6.83 76.12-8.25L76.12-8.25Q76.12-10.25 74.9-11.49 73.67-12.73 71.27-13.5L71.27-13.5 65.72-15.45Q61.82-16.85 59.82-18.65 57.82-20.45 57.82-23.7L57.82-23.7Q57.82-27.35 60.63-29.65 63.45-31.95 68.62-31.95L68.62-31.95Q73.42-31.95 76.12-29.74 78.82-27.53 79.22-23.8L79.22-23.8 75.37-23.8Q75-25.98 73.33-27.19 71.67-28.4 68.62-28.4L68.62-28.4Q65.52-28.4 63.8-27.03 62.07-25.65 62.07-23.55L62.07-23.55Q62.07-21.83 63.16-20.81 64.25-19.8 66.57-19L66.57-19 73.07-16.75Q76.45-15.63 78.41-13.6 80.37-11.58 80.37-8.35L80.37-8.35Q80.37-5.85 79.03-3.83 77.7-1.8 75.09-0.6 72.5 0.6 68.72 0.6Z" fill="#000000" data-fill-palette-color="primary"></path></g></svg></g></svg></g></svg></g></svg></g><g transform="matrix(1,0,0,1,486.3838145538956,0)"><svg viewBox="0 0 127.60490372136806 223.3085815123941" height="223.3085815123941" width="127.60490372136806"><g><svg xmlns="http://www.w3.org/2000/svg" xmlns:xlink="http://www.w3.org/1999/xlink" version="1.1" x="0" y="0" viewBox="30 15 40 70" enable-background="new 0 0 100 100" xml:space="preserve" height="223.3085815123941" width="127.60490372136806" class="icon-icon-0" data-fill-palette-color="accent" id="icon-0"><circle fill="#000000" cx="37.5" cy="50" r="7.5" data-fill-palette-color="accent"></circle><circle fill="#000000" cx="62.5" cy="22.5" r="7.5" data-fill-palette-color="accent"></circle><circle fill="#000000" cx="62.5" cy="50" r="7.5" data-fill-palette-color="accent"></circle><circle fill="#000000" cx="62.5" cy="77.5" r="7.5" data-fill-palette-color="accent"></circle><circle fill="#000000" cx="37.5" cy="22.5" r="2.5" data-fill-palette-color="accent"></circle><circle fill="#000000" cx="37.5" cy="77.5" r="2.5" data-fill-palette-color="accent"></circle></svg></g></svg></g></svg></g><defs></defs></svg><rect width="395.52" height="143.851193891457" fill="none" stroke="none" visibility="hidden"></rect></g></svg></g></svg>