<svg xmlns="http://www.w3.org/2000/svg" version="1.1" xmlns:xlink="http://www.w3.org/1999/xlink" xmlns:svgjs="http://svgjs.dev/svgjs" width="2000" height="782" viewBox="0 0 2000 782"><g transform="matrix(1,0,0,1,-1.2121212121212466,-0.24942744597041155)"><svg viewBox="0 0 396 155" data-background-color="#1f1f1f" preserveAspectRatio="xMidYMid meet" height="782" width="2000" xmlns="http://www.w3.org/2000/svg" xmlns:xlink="http://www.w3.org/1999/xlink"><g id="tight-bounds" transform="matrix(1,0,0,1,0.2400000000000091,0.049438943894386966)"><svg viewBox="0 0 395.52 154.90112211221123" height="154.90112211221123" width="395.52"><g><svg viewBox="0 0 395.52 154.90112211221123" height="154.90112211221123" width="395.52"><g><svg viewBox="0 0 395.52 154.90112211221123" height="154.90112211221123" width="395.52"><g id="textblocktransform"><svg viewBox="0 0 395.52 154.90112211221123" height="154.90112211221123" width="395.52" id="textblock"><g><svg viewBox="0 0 395.52 154.90112211221123" height="154.90112211221123" width="395.52"><g transform="matrix(1,0,0,1,0,0)"><svg width="395.52" viewBox="1.85 -35.3 90.9 35.599999999999994" height="154.90112211221123" data-palette-color="#ffffff"><path d="M50.2-35L53.75-35 41.95 0 38.05 0 27.8-29.85 17.5 0 13.65 0 1.85-35 5.65-35 15.75-4.9 26.2-35 29.65-35 39.95-4.75 50.2-35ZM59.05 0.25Q57.95 0.25 57.17-0.55 56.4-1.35 56.4-2.5L56.4-2.5Q56.4-3.65 57.17-4.42 57.95-5.2 59.05-5.2L59.05-5.2Q60.15-5.2 60.95-4.42 61.75-3.65 61.75-2.5L61.75-2.5Q61.75-1.35 60.95-0.55 60.15 0.25 59.05 0.25L59.05 0.25ZM79.7 0.3Q75.8 0.3 72.22-0.95 68.65-2.2 66.7-4.25L66.7-4.25 68.15-7.1Q70.05-5.2 73.2-4.03 76.35-2.85 79.7-2.85L79.7-2.85Q84.4-2.85 86.75-4.58 89.1-6.3 89.1-9.05L89.1-9.05Q89.1-11.15 87.82-12.4 86.55-13.65 84.7-14.33 82.85-15 79.55-15.8L79.55-15.8Q75.6-16.8 73.25-17.73 70.9-18.65 69.22-20.55 67.55-22.45 67.55-25.7L67.55-25.7Q67.55-28.35 68.95-30.53 70.35-32.7 73.25-34 76.15-35.3 80.45-35.3L80.45-35.3Q83.45-35.3 86.32-34.48 89.2-33.65 91.3-32.2L91.3-32.2 90.05-29.25Q87.85-30.7 85.35-31.43 82.85-32.15 80.45-32.15L80.45-32.15Q75.85-32.15 73.52-30.38 71.2-28.6 71.2-25.8L71.2-25.8Q71.2-23.7 72.47-22.43 73.75-21.15 75.67-20.48 77.6-19.8 80.85-19L80.85-19Q84.7-18.05 87.07-17.13 89.45-16.2 91.1-14.33 92.75-12.45 92.75-9.25L92.75-9.25Q92.75-6.6 91.32-4.42 89.9-2.25 86.95-0.98 84 0.3 79.7 0.3L79.7 0.3Z" opacity="1" transform="matrix(1,0,0,1,0,0)" fill="#000000" class="wordmark-text-0" data-fill-palette-color="primary" id="text-0"></path></svg></g></svg></g></svg></g></svg></g></svg></g><defs></defs></svg><rect width="395.52" height="154.90112211221123" fill="none" stroke="none" visibility="hidden"></rect></g></svg></g></svg>